<mxfile host="app.diagrams.net" modified="2023-11-25T00:09:16.923Z" agent="Mozilla/5.0 (Windows NT 10.0; Win64; x64) AppleWebKit/537.36 (KHTML, like Gecko) Chrome/119.0.0.0 Safari/537.36" etag="joW3-OvoMJsul7J8XIwH" version="22.1.3" type="github">
  <diagram name="Page-1" id="4mX7fSwMR4FFU9FmuyyE">
    <mxGraphModel dx="3970" dy="3220" grid="1" gridSize="10" guides="1" tooltips="1" connect="1" arrows="1" fold="1" page="1" pageScale="1" pageWidth="850" pageHeight="1100" math="0" shadow="0">
      <root>
        <mxCell id="0" />
        <mxCell id="1" parent="0" />
        <mxCell id="7wHQpBr8hZq8P4tWC0bB-24" style="edgeStyle=orthogonalEdgeStyle;rounded=0;orthogonalLoop=1;jettySize=auto;html=1;entryX=-0.021;entryY=0.343;entryDx=0;entryDy=0;entryPerimeter=0;exitX=0;exitY=0;exitDx=77.5;exitDy=100;exitPerimeter=0;" parent="1" target="7wHQpBr8hZq8P4tWC0bB-13" edge="1">
          <mxGeometry relative="1" as="geometry">
            <mxPoint x="352.08000000000004" y="155.4000000000001" as="targetPoint" />
            <mxPoint x="139.9999999999999" y="80" as="sourcePoint" />
            <Array as="points">
              <mxPoint x="140" y="156" />
            </Array>
          </mxGeometry>
        </mxCell>
        <mxCell id="7wHQpBr8hZq8P4tWC0bB-55" value="room schedule request" style="edgeLabel;html=1;align=center;verticalAlign=middle;resizable=0;points=[];" parent="7wHQpBr8hZq8P4tWC0bB-24" vertex="1" connectable="0">
          <mxGeometry x="-0.0783" y="1" relative="1" as="geometry">
            <mxPoint x="35" y="1" as="offset" />
          </mxGeometry>
        </mxCell>
        <mxCell id="7wHQpBr8hZq8P4tWC0bB-27" style="edgeStyle=orthogonalEdgeStyle;rounded=0;orthogonalLoop=1;jettySize=auto;html=1;exitX=0;exitY=0;exitDx=77.5;exitDy=100;exitPerimeter=0;entryX=0;entryY=0.5;entryDx=0;entryDy=0;" parent="1" target="7wHQpBr8hZq8P4tWC0bB-15" edge="1">
          <mxGeometry relative="1" as="geometry">
            <mxPoint x="80.02000000000001" y="80" as="sourcePoint" />
            <mxPoint x="292.52" y="300" as="targetPoint" />
            <Array as="points">
              <mxPoint x="120" y="80" />
              <mxPoint x="120" y="300" />
            </Array>
          </mxGeometry>
        </mxCell>
        <mxCell id="7wHQpBr8hZq8P4tWC0bB-40" value="reserve request" style="edgeLabel;html=1;align=center;verticalAlign=middle;resizable=0;points=[];" parent="7wHQpBr8hZq8P4tWC0bB-27" vertex="1" connectable="0">
          <mxGeometry x="0.1617" y="-2" relative="1" as="geometry">
            <mxPoint x="41" y="-2" as="offset" />
          </mxGeometry>
        </mxCell>
        <mxCell id="7wHQpBr8hZq8P4tWC0bB-28" style="edgeStyle=orthogonalEdgeStyle;rounded=0;orthogonalLoop=1;jettySize=auto;html=1;exitX=0;exitY=0;exitDx=55;exitDy=100;exitPerimeter=0;entryX=0;entryY=0.5;entryDx=0;entryDy=0;" parent="1" source="adBt8-WGWhlBJmZ7pMQH-2" target="7wHQpBr8hZq8P4tWC0bB-21" edge="1">
          <mxGeometry relative="1" as="geometry">
            <Array as="points">
              <mxPoint x="110" y="80" />
              <mxPoint x="110" y="450" />
            </Array>
          </mxGeometry>
        </mxCell>
        <mxCell id="7wHQpBr8hZq8P4tWC0bB-42" value="vacate request" style="edgeLabel;html=1;align=center;verticalAlign=middle;resizable=0;points=[];" parent="7wHQpBr8hZq8P4tWC0bB-28" vertex="1" connectable="0">
          <mxGeometry x="0.4815" y="-2" relative="1" as="geometry">
            <mxPoint y="-2" as="offset" />
          </mxGeometry>
        </mxCell>
        <mxCell id="7wHQpBr8hZq8P4tWC0bB-29" style="edgeStyle=orthogonalEdgeStyle;rounded=0;orthogonalLoop=1;jettySize=auto;html=1;exitX=0;exitY=0;exitDx=32.5;exitDy=100;exitPerimeter=0;entryX=0;entryY=0.5;entryDx=0;entryDy=0;" parent="1" source="adBt8-WGWhlBJmZ7pMQH-2" target="7wHQpBr8hZq8P4tWC0bB-23" edge="1">
          <mxGeometry relative="1" as="geometry">
            <Array as="points">
              <mxPoint x="100" y="80" />
              <mxPoint x="100" y="610" />
            </Array>
          </mxGeometry>
        </mxCell>
        <mxCell id="adBt8-WGWhlBJmZ7pMQH-2" value="Faculty" style="html=1;dashed=0;whiteSpace=wrap;shape=mxgraph.dfd.externalEntity" parent="1" vertex="1">
          <mxGeometry x="50" y="-20" width="100" height="100" as="geometry" />
        </mxCell>
        <mxCell id="7wHQpBr8hZq8P4tWC0bB-12" value="1.0" style="swimlane;fontStyle=0;childLayout=stackLayout;horizontal=1;startSize=20;fillColor=#ffffff;horizontalStack=0;resizeParent=1;resizeParentMax=0;resizeLast=0;collapsible=0;marginBottom=0;swimlaneFillColor=#ffffff;rounded=1;" parent="1" vertex="1">
          <mxGeometry x="340" y="115" width="140" height="80" as="geometry" />
        </mxCell>
        <mxCell id="7wHQpBr8hZq8P4tWC0bB-13" value="check room schedule" style="text;strokeColor=none;align=center;fillColor=none;html=1;verticalAlign=middle;whiteSpace=wrap;rounded=0;" parent="7wHQpBr8hZq8P4tWC0bB-12" vertex="1">
          <mxGeometry y="20" width="140" height="60" as="geometry" />
        </mxCell>
        <mxCell id="7wHQpBr8hZq8P4tWC0bB-14" value="2.0" style="swimlane;fontStyle=0;childLayout=stackLayout;horizontal=1;startSize=20;fillColor=#ffffff;horizontalStack=0;resizeParent=1;resizeParentMax=0;resizeLast=0;collapsible=0;marginBottom=0;swimlaneFillColor=#ffffff;rounded=1;" parent="1" vertex="1">
          <mxGeometry x="340" y="250" width="140" height="80" as="geometry" />
        </mxCell>
        <mxCell id="7wHQpBr8hZq8P4tWC0bB-15" value="reserve room" style="text;strokeColor=none;align=center;fillColor=none;html=1;verticalAlign=middle;whiteSpace=wrap;rounded=0;" parent="7wHQpBr8hZq8P4tWC0bB-14" vertex="1">
          <mxGeometry y="20" width="140" height="60" as="geometry" />
        </mxCell>
        <mxCell id="7wHQpBr8hZq8P4tWC0bB-20" value="3.0" style="swimlane;fontStyle=0;childLayout=stackLayout;horizontal=1;startSize=20;fillColor=#ffffff;horizontalStack=0;resizeParent=1;resizeParentMax=0;resizeLast=0;collapsible=0;marginBottom=0;swimlaneFillColor=#ffffff;rounded=1;" parent="1" vertex="1">
          <mxGeometry x="340" y="400" width="140" height="80" as="geometry" />
        </mxCell>
        <mxCell id="7wHQpBr8hZq8P4tWC0bB-21" value="vacate room" style="text;strokeColor=none;align=center;fillColor=none;html=1;verticalAlign=middle;whiteSpace=wrap;rounded=0;" parent="7wHQpBr8hZq8P4tWC0bB-20" vertex="1">
          <mxGeometry y="20" width="140" height="60" as="geometry" />
        </mxCell>
        <mxCell id="7wHQpBr8hZq8P4tWC0bB-22" value="4.0" style="swimlane;fontStyle=0;childLayout=stackLayout;horizontal=1;startSize=20;fillColor=#ffffff;horizontalStack=0;resizeParent=1;resizeParentMax=0;resizeLast=0;collapsible=0;marginBottom=0;swimlaneFillColor=#ffffff;rounded=1;" parent="1" vertex="1">
          <mxGeometry x="340" y="560" width="140" height="80" as="geometry" />
        </mxCell>
        <mxCell id="7wHQpBr8hZq8P4tWC0bB-23" value="check faculty schedule" style="text;strokeColor=none;align=center;fillColor=none;html=1;verticalAlign=middle;whiteSpace=wrap;rounded=0;" parent="7wHQpBr8hZq8P4tWC0bB-22" vertex="1">
          <mxGeometry y="20" width="140" height="60" as="geometry" />
        </mxCell>
        <mxCell id="7wHQpBr8hZq8P4tWC0bB-25" value="2" style="html=1;dashed=0;whiteSpace=wrap;shape=mxgraph.dfd.dataStoreID;align=left;spacingLeft=3;points=[[0,0],[0.5,0],[1,0],[0,0.5],[1,0.5],[0,1],[0.5,1],[1,1]];" parent="1" vertex="1">
          <mxGeometry x="660" y="140" width="130" height="30" as="geometry" />
        </mxCell>
        <mxCell id="7wHQpBr8hZq8P4tWC0bB-26" value="ScheduleDB" style="text;strokeColor=none;align=center;fillColor=none;html=1;verticalAlign=middle;whiteSpace=wrap;rounded=0;" parent="1" vertex="1">
          <mxGeometry x="710" y="140" width="70" height="30" as="geometry" />
        </mxCell>
        <mxCell id="7wHQpBr8hZq8P4tWC0bB-32" style="edgeStyle=orthogonalEdgeStyle;rounded=0;orthogonalLoop=1;jettySize=auto;html=1;exitX=1;exitY=0.5;exitDx=0;exitDy=0;entryX=0.25;entryY=1;entryDx=0;entryDy=0;" parent="1" source="7wHQpBr8hZq8P4tWC0bB-15" target="7wHQpBr8hZq8P4tWC0bB-26" edge="1">
          <mxGeometry relative="1" as="geometry" />
        </mxCell>
        <mxCell id="7wHQpBr8hZq8P4tWC0bB-41" value="reservation detail" style="edgeLabel;html=1;align=center;verticalAlign=middle;resizable=0;points=[];" parent="7wHQpBr8hZq8P4tWC0bB-32" vertex="1" connectable="0">
          <mxGeometry x="-0.581" y="1" relative="1" as="geometry">
            <mxPoint x="43" y="1" as="offset" />
          </mxGeometry>
        </mxCell>
        <mxCell id="7wHQpBr8hZq8P4tWC0bB-33" style="edgeStyle=orthogonalEdgeStyle;rounded=0;orthogonalLoop=1;jettySize=auto;html=1;entryX=0.5;entryY=1;entryDx=0;entryDy=0;" parent="1" source="7wHQpBr8hZq8P4tWC0bB-21" target="7wHQpBr8hZq8P4tWC0bB-26" edge="1">
          <mxGeometry relative="1" as="geometry" />
        </mxCell>
        <mxCell id="7wHQpBr8hZq8P4tWC0bB-43" value="updated reservation detail" style="edgeLabel;html=1;align=center;verticalAlign=middle;resizable=0;points=[];" parent="7wHQpBr8hZq8P4tWC0bB-33" vertex="1" connectable="0">
          <mxGeometry x="-0.5673" y="-4" relative="1" as="geometry">
            <mxPoint x="-1" y="-4" as="offset" />
          </mxGeometry>
        </mxCell>
        <mxCell id="7wHQpBr8hZq8P4tWC0bB-35" style="edgeStyle=orthogonalEdgeStyle;rounded=0;orthogonalLoop=1;jettySize=auto;html=1;exitX=1;exitY=0.5;exitDx=0;exitDy=0;entryX=0.75;entryY=1;entryDx=0;entryDy=0;" parent="1" source="7wHQpBr8hZq8P4tWC0bB-23" target="7wHQpBr8hZq8P4tWC0bB-26" edge="1">
          <mxGeometry relative="1" as="geometry" />
        </mxCell>
        <mxCell id="7wHQpBr8hZq8P4tWC0bB-52" style="edgeStyle=orthogonalEdgeStyle;rounded=0;orthogonalLoop=1;jettySize=auto;html=1;exitX=0;exitY=0.5;exitDx=0;exitDy=0;entryX=1.009;entryY=0.338;entryDx=0;entryDy=0;entryPerimeter=0;" parent="1" source="7wHQpBr8hZq8P4tWC0bB-25" target="7wHQpBr8hZq8P4tWC0bB-13" edge="1">
          <mxGeometry relative="1" as="geometry" />
        </mxCell>
        <mxCell id="7wHQpBr8hZq8P4tWC0bB-53" value="room schedule details" style="edgeLabel;html=1;align=center;verticalAlign=middle;resizable=0;points=[];" parent="7wHQpBr8hZq8P4tWC0bB-52" vertex="1" connectable="0">
          <mxGeometry x="0.1756" y="1" relative="1" as="geometry">
            <mxPoint x="25" y="-1" as="offset" />
          </mxGeometry>
        </mxCell>
        <mxCell id="7wHQpBr8hZq8P4tWC0bB-58" style="edgeStyle=orthogonalEdgeStyle;rounded=0;orthogonalLoop=1;jettySize=auto;html=1;entryX=0.927;entryY=1.02;entryDx=0;entryDy=0;entryPerimeter=0;" parent="1" edge="1">
          <mxGeometry relative="1" as="geometry">
            <mxPoint x="340" y="180" as="sourcePoint" />
            <mxPoint x="130.00000000000006" y="80" as="targetPoint" />
            <Array as="points">
              <mxPoint x="130.98000000000002" y="180" />
              <mxPoint x="130.98000000000002" y="80" />
            </Array>
          </mxGeometry>
        </mxCell>
        <mxCell id="7wHQpBr8hZq8P4tWC0bB-59" value="room schedule details" style="edgeLabel;html=1;align=center;verticalAlign=middle;resizable=0;points=[];" parent="7wHQpBr8hZq8P4tWC0bB-58" vertex="1" connectable="0">
          <mxGeometry x="0.2621" y="1" relative="1" as="geometry">
            <mxPoint x="64" as="offset" />
          </mxGeometry>
        </mxCell>
        <mxCell id="7wHQpBr8hZq8P4tWC0bB-60" value="1.0" style="swimlane;fontStyle=0;childLayout=stackLayout;horizontal=1;startSize=20;fillColor=#ffffff;horizontalStack=0;resizeParent=1;resizeParentMax=0;resizeLast=0;collapsible=0;marginBottom=0;swimlaneFillColor=#ffffff;rounded=1;" parent="1" vertex="1">
          <mxGeometry x="340" y="-10" width="140" height="80" as="geometry" />
        </mxCell>
        <mxCell id="7wHQpBr8hZq8P4tWC0bB-61" value="login" style="text;strokeColor=none;align=center;fillColor=none;html=1;verticalAlign=middle;whiteSpace=wrap;rounded=0;" parent="7wHQpBr8hZq8P4tWC0bB-60" vertex="1">
          <mxGeometry y="20" width="140" height="60" as="geometry" />
        </mxCell>
        <mxCell id="7wHQpBr8hZq8P4tWC0bB-75" style="edgeStyle=orthogonalEdgeStyle;rounded=0;orthogonalLoop=1;jettySize=auto;html=1;exitX=0;exitY=0.5;exitDx=0;exitDy=0;entryX=1.009;entryY=0.338;entryDx=0;entryDy=0;entryPerimeter=0;" parent="1" source="7wHQpBr8hZq8P4tWC0bB-62" target="7wHQpBr8hZq8P4tWC0bB-61" edge="1">
          <mxGeometry relative="1" as="geometry">
            <mxPoint x="490" y="30" as="targetPoint" />
          </mxGeometry>
        </mxCell>
        <mxCell id="7wHQpBr8hZq8P4tWC0bB-76" value="Employee information" style="edgeLabel;html=1;align=center;verticalAlign=middle;resizable=0;points=[];" parent="7wHQpBr8hZq8P4tWC0bB-75" vertex="1" connectable="0">
          <mxGeometry x="0.1935" y="1" relative="1" as="geometry">
            <mxPoint x="27" y="-1" as="offset" />
          </mxGeometry>
        </mxCell>
        <mxCell id="7wHQpBr8hZq8P4tWC0bB-62" value="1" style="html=1;dashed=0;whiteSpace=wrap;shape=mxgraph.dfd.dataStoreID;align=left;spacingLeft=3;points=[[0,0],[0.5,0],[1,0],[0,0.5],[1,0.5],[0,1],[0.5,1],[1,1]];" parent="1" vertex="1">
          <mxGeometry x="660" y="15" width="130" height="30" as="geometry" />
        </mxCell>
        <mxCell id="7wHQpBr8hZq8P4tWC0bB-63" value="FacultyDB" style="text;strokeColor=none;align=center;fillColor=none;html=1;verticalAlign=middle;whiteSpace=wrap;rounded=0;" parent="1" vertex="1">
          <mxGeometry x="710" y="15" width="70" height="30" as="geometry" />
        </mxCell>
        <mxCell id="7wHQpBr8hZq8P4tWC0bB-67" style="edgeStyle=orthogonalEdgeStyle;rounded=0;orthogonalLoop=1;jettySize=auto;html=1;exitX=0;exitY=0;exitDx=100;exitDy=77.5;exitPerimeter=0;entryX=-0.015;entryY=0.78;entryDx=0;entryDy=0;entryPerimeter=0;" parent="1" edge="1">
          <mxGeometry relative="1" as="geometry">
            <mxPoint x="149.99999999999994" y="45.7" as="sourcePoint" />
            <mxPoint x="337.9000000000001" y="45.000000000000185" as="targetPoint" />
          </mxGeometry>
        </mxCell>
        <mxCell id="7wHQpBr8hZq8P4tWC0bB-70" value="Employee id" style="edgeLabel;html=1;align=center;verticalAlign=middle;resizable=0;points=[];" parent="7wHQpBr8hZq8P4tWC0bB-67" vertex="1" connectable="0">
          <mxGeometry x="-0.1084" relative="1" as="geometry">
            <mxPoint as="offset" />
          </mxGeometry>
        </mxCell>
        <mxCell id="7wHQpBr8hZq8P4tWC0bB-68" style="edgeStyle=orthogonalEdgeStyle;rounded=0;orthogonalLoop=1;jettySize=auto;html=1;entryX=0.996;entryY=0.399;entryDx=0;entryDy=0;entryPerimeter=0;" parent="1" source="7wHQpBr8hZq8P4tWC0bB-61" target="adBt8-WGWhlBJmZ7pMQH-2" edge="1">
          <mxGeometry relative="1" as="geometry">
            <Array as="points">
              <mxPoint x="245" y="20" />
            </Array>
          </mxGeometry>
        </mxCell>
        <mxCell id="7wHQpBr8hZq8P4tWC0bB-74" value="Login confirmation" style="edgeLabel;html=1;align=center;verticalAlign=middle;resizable=0;points=[];" parent="7wHQpBr8hZq8P4tWC0bB-68" vertex="1" connectable="0">
          <mxGeometry x="-0.1095" y="-3" relative="1" as="geometry">
            <mxPoint as="offset" />
          </mxGeometry>
        </mxCell>
        <mxCell id="7wHQpBr8hZq8P4tWC0bB-85" style="edgeStyle=orthogonalEdgeStyle;rounded=0;orthogonalLoop=1;jettySize=auto;html=1;exitX=0;exitY=0;exitDx=100;exitDy=55;exitPerimeter=0;" parent="1" source="7wHQpBr8hZq8P4tWC0bB-77" edge="1">
          <mxGeometry relative="1" as="geometry">
            <mxPoint x="320" y="-204.8571428571429" as="targetPoint" />
          </mxGeometry>
        </mxCell>
        <mxCell id="7wHQpBr8hZq8P4tWC0bB-86" value="Schedule request" style="edgeLabel;html=1;align=center;verticalAlign=middle;resizable=0;points=[];" parent="7wHQpBr8hZq8P4tWC0bB-85" vertex="1" connectable="0">
          <mxGeometry x="0.197" y="-1" relative="1" as="geometry">
            <mxPoint y="-2" as="offset" />
          </mxGeometry>
        </mxCell>
        <mxCell id="7wHQpBr8hZq8P4tWC0bB-77" value="Faculty" style="html=1;dashed=0;whiteSpace=wrap;shape=mxgraph.dfd.externalEntity" parent="1" vertex="1">
          <mxGeometry x="50" y="-260" width="100" height="100" as="geometry" />
        </mxCell>
        <mxCell id="7wHQpBr8hZq8P4tWC0bB-79" value="0&lt;br&gt;Reservation System" style="html=1;dashed=0;whiteSpace=wrap;shape=mxgraph.dfd.start" parent="1" vertex="1">
          <mxGeometry x="322.5" y="-250" width="175" height="90" as="geometry" />
        </mxCell>
        <mxCell id="7wHQpBr8hZq8P4tWC0bB-81" style="edgeStyle=orthogonalEdgeStyle;rounded=0;orthogonalLoop=1;jettySize=auto;html=1;exitX=0;exitY=0;exitDx=100;exitDy=55;exitPerimeter=0;entryX=0.005;entryY=0.663;entryDx=0;entryDy=0;entryPerimeter=0;" parent="1" target="7wHQpBr8hZq8P4tWC0bB-79" edge="1">
          <mxGeometry relative="1" as="geometry">
            <mxPoint x="150" y="-190" as="sourcePoint" />
            <mxPoint x="322.5" y="-190" as="targetPoint" />
          </mxGeometry>
        </mxCell>
        <mxCell id="7wHQpBr8hZq8P4tWC0bB-82" value="Reservation request" style="edgeLabel;html=1;align=center;verticalAlign=middle;resizable=0;points=[];" parent="7wHQpBr8hZq8P4tWC0bB-81" vertex="1" connectable="0">
          <mxGeometry x="0.0138" y="2" relative="1" as="geometry">
            <mxPoint as="offset" />
          </mxGeometry>
        </mxCell>
        <mxCell id="7wHQpBr8hZq8P4tWC0bB-83" style="edgeStyle=orthogonalEdgeStyle;rounded=0;orthogonalLoop=1;jettySize=auto;html=1;entryX=1.006;entryY=0.223;entryDx=0;entryDy=0;entryPerimeter=0;exitX=0.018;exitY=0.335;exitDx=0;exitDy=0;exitPerimeter=0;" parent="1" source="7wHQpBr8hZq8P4tWC0bB-79" edge="1">
          <mxGeometry relative="1" as="geometry">
            <mxPoint x="320" y="-220" as="sourcePoint" />
            <mxPoint x="150.00000000000003" y="-219.98999999999992" as="targetPoint" />
          </mxGeometry>
        </mxCell>
        <mxCell id="7wHQpBr8hZq8P4tWC0bB-89" value="Reservation information" style="edgeLabel;html=1;align=center;verticalAlign=middle;resizable=0;points=[];" parent="7wHQpBr8hZq8P4tWC0bB-83" vertex="1" connectable="0">
          <mxGeometry x="-0.3362" y="1" relative="1" as="geometry">
            <mxPoint x="-17" as="offset" />
          </mxGeometry>
        </mxCell>
        <mxCell id="7wHQpBr8hZq8P4tWC0bB-87" style="edgeStyle=orthogonalEdgeStyle;rounded=0;orthogonalLoop=1;jettySize=auto;html=1;entryX=1.002;entryY=0.228;entryDx=0;entryDy=0;entryPerimeter=0;" parent="1" edge="1">
          <mxGeometry relative="1" as="geometry">
            <mxPoint x="330" y="-230" as="sourcePoint" />
            <mxPoint x="149.99999999999994" y="-230.00000000000006" as="targetPoint" />
          </mxGeometry>
        </mxCell>
        <mxCell id="7wHQpBr8hZq8P4tWC0bB-88" value="Schedule information" style="edgeLabel;html=1;align=center;verticalAlign=middle;resizable=0;points=[];" parent="7wHQpBr8hZq8P4tWC0bB-87" vertex="1" connectable="0">
          <mxGeometry x="-0.0275" relative="1" as="geometry">
            <mxPoint as="offset" />
          </mxGeometry>
        </mxCell>
        <mxCell id="7wHQpBr8hZq8P4tWC0bB-91" style="edgeStyle=orthogonalEdgeStyle;rounded=0;orthogonalLoop=1;jettySize=auto;html=1;exitX=0;exitY=0;exitDx=100;exitDy=77.5;exitPerimeter=0;" parent="1" edge="1">
          <mxGeometry relative="1" as="geometry">
            <mxPoint x="150" y="-179.87" as="sourcePoint" />
            <mxPoint x="330" y="-180" as="targetPoint" />
          </mxGeometry>
        </mxCell>
        <mxCell id="7wHQpBr8hZq8P4tWC0bB-92" value="Employee credentials" style="edgeLabel;html=1;align=center;verticalAlign=middle;resizable=0;points=[];" parent="7wHQpBr8hZq8P4tWC0bB-91" vertex="1" connectable="0">
          <mxGeometry x="0.1172" y="-1" relative="1" as="geometry">
            <mxPoint as="offset" />
          </mxGeometry>
        </mxCell>
      </root>
    </mxGraphModel>
  </diagram>
</mxfile>
